HIERARCHY
ROOT Hips
{
	OFFSET 0.000000 0.000000 0.000000
	CHANNELS 6 Xposition Yposition Zposition Xrotation Yrotation Zrotation
	JOINT LeftUpLeg_virtual
	{
		OFFSET 0.000000 0.000000 0.000000
		CHANNELS 3 Xrotation Yrotation Zrotation
		JOINT LeftUpLeg
		{
			OFFSET 13.026900 -6.336304 -1.092800
			CHANNELS 3 Xrotation Yrotation Zrotation
			JOINT LeftLeg
			{
				OFFSET 0.524474 -46.096886 9.782700
				CHANNELS 3 Xrotation Yrotation Zrotation
				JOINT LeftFoot
				{
					OFFSET -0.524474 -53.427422 -12.948200
					CHANNELS 3 Xrotation Yrotation Zrotation
					JOINT LeftToeBase
					{
						OFFSET 0.192200 -14.009700 16.364100
						CHANNELS 3 Xrotation Yrotation Zrotation
						JOINT LeftToe_End
						{
							OFFSET -1.784700 -0.561700 9.474800
							CHANNELS 3 Xrotation Yrotation Zrotation
							End Site
							{
								OFFSET 0 0 0
							}
						}
					}
				}
			}
		}
	}
	JOINT RightUpLeg_virtual
	{
		OFFSET 0.000000 0.000000 0.000000
		CHANNELS 3 Xrotation Yrotation Zrotation
		JOINT RightUpLeg
		{
			OFFSET -12.883000 -6.336304 -1.092800
			CHANNELS 3 Xrotation Yrotation Zrotation
			JOINT RightLeg
			{
				OFFSET -0.524587 -46.096825 9.782800
				CHANNELS 3 Xrotation Yrotation Zrotation
				JOINT RightFoot
				{
					OFFSET 0.524587 -53.427383 -12.948300
					CHANNELS 3 Xrotation Yrotation Zrotation
					JOINT RightToeBase
					{
						OFFSET -0.192200 -14.009700 16.364100
						CHANNELS 3 Xrotation Yrotation Zrotation
						JOINT RightToe_End
						{
							OFFSET 1.784700 -0.561700 9.474800
							CHANNELS 3 Xrotation Yrotation Zrotation
							End Site
							{
								OFFSET 0 0 0
							}
						}
					}
				}
			}
		}
	}
	JOINT Spine_virtual
	{
		OFFSET 0.000000 0.000000 0.000000
		CHANNELS 3 Xrotation Yrotation Zrotation
		JOINT Spine
		{
			OFFSET 0.072000 7.257294 -0.789700
			CHANNELS 3 Xrotation Yrotation Zrotation
			JOINT Spine1
			{
				OFFSET 0.000000 12.508769 -0.658067
				CHANNELS 3 Xrotation Yrotation Zrotation
				JOINT Spine1_split
				{
					OFFSET 0.000000 12.508769 -0.658067
					CHANNELS 3 Xrotation Yrotation Zrotation
					JOINT Spine2
					{
						OFFSET 0.000000 12.508769 -0.658067
						CHANNELS 3 Xrotation Yrotation Zrotation
						JOINT Neck_virtual
						{
							OFFSET 0.000000 0.000000 0.000000
							CHANNELS 3 Xrotation Yrotation Zrotation
							JOINT Neck
							{
								OFFSET 0.000000 14.033295 7.520400
								CHANNELS 3 Xrotation Yrotation Zrotation
								JOINT Head
								{
									OFFSET 0.000000 8.198502 5.703100
									CHANNELS 3 Xrotation Yrotation Zrotation
									JOINT HeadTop_End
									{
										OFFSET 0.000000 17.760803 13.332701
										CHANNELS 3 Xrotation Yrotation Zrotation
										End Site
										{
											OFFSET 0 0 0
										}
									}
								}
							}
						}
						JOINT LeftShoulder_virtual
						{
							OFFSET 0.000000 0.000000 0.000000
							CHANNELS 3 Xrotation Yrotation Zrotation
							JOINT LeftShoulder
							{
								OFFSET 6.292450 5.785301 -0.669000
								CHANNELS 3 Xrotation Yrotation Zrotation
								JOINT LeftShoulder_split
								{
									OFFSET 6.292450 5.785301 -0.669000
									CHANNELS 3 Xrotation Yrotation Zrotation
									JOINT LeftArm
									{
										OFFSET 13.907140 -6.093903 1.965100
										CHANNELS 3 Xrotation Yrotation Zrotation
										JOINT LeftForeArm
										{
											OFFSET 34.140198 0.000000 0.000000
											CHANNELS 3 Xrotation Yrotation Zrotation
											JOINT LeftHand
											{
												OFFSET 40.960209 0.000000 0.000000
												CHANNELS 3 Xrotation Yrotation Zrotation
												End Site
												{
													OFFSET 0 0 0
												}
											}
										}
									}
								}
							}
						}
						JOINT RightShoulder_virtual
						{
							OFFSET 0.000000 0.000000 0.000000
							CHANNELS 3 Xrotation Yrotation Zrotation
							JOINT RightShoulder
							{
								OFFSET -6.292450 5.785301 -0.669000
								CHANNELS 3 Xrotation Yrotation Zrotation
								JOINT RightShoulder_split
								{
									OFFSET -6.292450 5.785301 -0.669000
									CHANNELS 3 Xrotation Yrotation Zrotation
									JOINT RightArm
									{
										OFFSET -13.907140 -6.093903 1.965100
										CHANNELS 3 Xrotation Yrotation Zrotation
										JOINT RightForeArm
										{
											OFFSET -34.140198 0.000000 0.000000
											CHANNELS 3 Xrotation Yrotation Zrotation
											JOINT RightHand
											{
												OFFSET -40.960209 0.000000 0.000000
												CHANNELS 3 Xrotation Yrotation Zrotation
												End Site
												{
													OFFSET 0 0 0
												}
											}
										}
									}
								}
							}
						}
					}
				}
			}
		}
	}
}
MOTION
Frames: 6
Frame Time: 0.03333333
-3.399017 98.453369 -11.005505 0.000000 0.000000 0.000000 0.572385 -52.161540 5.096665 -31.194089 13.695020 26.587630 42.683351 1.987990 -10.354697 -5.651734 4.194365 -12.484726 1.651544 -0.039388 0.092881 0.000000 0.000000 0.000000 -0.487862 -48.663462 4.491833 -32.300023 -6.898961 -25.362366 52.334067 17.672203 -9.504323 -18.624293 -9.024977 34.110033 2.604974 4.092830 -17.384409 0.000000 0.000000 0.000000 -4.102244 -45.507959 1.798934 7.125823 -3.562845 -3.672550 0.775572 -5.494809 -2.283623 0.109419 -1.324767 0.504327 0.000000 0.000000 0.000000 5.813781 -2.800142 -1.068254 -3.249006 32.450379 34.062512 69.921719 60.730258 -72.783117 0.000000 0.000000 0.000000 2.653517 -4.048910 -3.571856 -1.295327 -13.660090 -15.835532 0.723054 -7.496359 0.196090 -20.828177 -2.235724 -18.216833 17.861612 -20.350294 16.638510 0.000000 0.000000 0.000000 6.330776 -3.342008 -2.415146 -1.262339 35.442808 0.748012 2.003310 -3.777064 2.796671 -56.675421 -18.113003 19.226870 -40.974380 82.122561 52.779290 0.000000 0.000000 0.000000 
-4.058486 98.639694 -9.386829 0.000000 0.000000 0.000000 -0.236163 -51.015841 4.453180 -29.949584 13.698952 26.222269 42.210094 1.686599 -9.976369 -6.325728 3.753751 -12.450398 1.529004 -0.019696 0.195264 0.000000 0.000000 0.000000 -0.648617 -47.365350 4.253660 -29.994065 -7.173986 -25.243910 49.718019 17.486008 -8.924211 -17.870085 -9.323989 35.177479 -0.230941 4.557849 -17.265320 0.000000 0.000000 0.000000 -5.799275 -44.772754 0.914571 6.263464 -3.972756 -3.136966 -0.340140 -5.822026 -1.980122 -0.188138 -1.290884 0.503215 0.000000 0.000000 0.000000 5.493095 -3.058592 -0.716882 -1.750280 32.702058 33.847754 67.446848 62.328072 -71.077749 0.000000 0.000000 0.000000 2.205866 -4.316208 -3.231994 -1.055721 -13.613935 -15.845800 1.907917 -8.369145 -2.380950 -21.369116 -2.102624 -20.497995 19.834601 -22.695202 18.098963 0.000000 0.000000 0.000000 5.776741 -3.831647 -2.251726 -1.405327 33.341773 0.893213 2.464198 -8.139031 1.969138 -55.735365 -15.841382 18.274851 -95.018020 85.185655 106.670882 0.000000 0.000000 0.000000 
-4.960706 99.569344 -7.636463 0.000000 0.000000 0.000000 -1.807483 -48.681156 2.989542 -27.471545 13.538307 25.149363 40.835502 1.643373 -9.000499 -6.811482 3.222364 -12.558305 1.371268 0.021962 0.305077 0.000000 0.000000 0.000000 -1.412949 -44.587164 3.130853 -24.641413 -8.963939 -24.524503 44.355727 16.512851 -7.785472 -17.513887 -10.756535 34.578721 -0.910765 4.704022 -16.452903 0.000000 0.000000 0.000000 -7.087912 -41.880937 -0.267613 4.570274 -4.436875 -2.063629 -1.780570 -6.399532 -1.130526 -0.285470 -1.189119 0.307738 0.000000 0.000000 0.000000 4.691140 -3.598959 0.210232 -0.301290 31.968373 33.443584 61.875695 63.680545 -67.540770 0.000000 0.000000 0.000000 1.353561 -4.768756 -2.254489 -0.812474 -13.157726 -15.913673 2.101218 -8.221430 -5.080265 -21.056102 -3.046342 -23.705404 25.604752 -26.662965 22.320370 0.000000 0.000000 0.000000 4.769742 -4.587715 -1.511384 -0.991195 29.719560 0.217695 1.411807 -9.326763 2.128813 -55.268429 -16.489205 14.837927 -153.119495 77.221518 165.555480 0.000000 0.000000 0.000000 
-5.787701 101.055374 -5.864452 0.000000 0.000000 0.000000 -3.826045 -45.536779 1.002612 -24.332902 13.050775 23.520760 38.866447 1.833311 -7.573794 -7.260565 2.596978 -12.663049 1.191964 0.064157 0.379819 0.000000 0.000000 0.000000 -2.667057 -41.218761 1.396696 -17.821097 -11.639734 -23.293397 37.927439 14.895377 -6.449128 -16.774846 -12.922953 33.121858 -0.169903 4.654028 -15.174073 0.000000 0.000000 0.000000 -7.774989 -37.313241 -1.539994 2.605070 -4.819523 -0.604851 -3.215716 -6.995099 0.109648 -0.136290 -1.071234 0.085820 0.000000 0.000000 0.000000 3.522606 -4.207778 1.513808 0.740627 30.166220 32.836189 53.423445 64.444850 -62.209985 0.000000 0.000000 0.000000 0.126869 -5.223638 -0.813292 -0.616964 -12.431681 -15.677793 1.912655 -7.604152 -6.673178 -19.980737 -4.254759 -26.782034 34.612691 -31.069042 29.041288 0.000000 0.000000 0.000000 3.484965 -5.390441 -0.370151 -0.393284 25.223463 -0.530594 -0.146444 -6.561096 3.238910 -55.330642 -20.467282 9.978946 -160.488149 66.833005 174.518505 0.000000 0.000000 0.000000 
-6.547200 102.791878 -3.966763 0.000000 0.000000 0.000000 -5.749669 -41.973456 -0.937315 -21.353237 12.089218 21.503087 36.902132 1.979274 -5.861493 -7.641848 1.774263 -12.872388 0.915334 0.096807 0.379110 0.000000 0.000000 0.000000 -4.006323 -37.361230 -0.405451 -11.207406 -14.431358 -21.933944 32.236714 13.456822 -5.306482 -14.927851 -14.970554 32.352147 -0.419893 4.756636 -13.704267 0.000000 0.000000 0.000000 -8.026161 -31.831086 -2.715683 0.841951 -4.969436 1.018678 -4.473262 -7.439579 1.544092 -0.022100 -0.819792 -0.150555 0.000000 0.000000 0.000000 2.195254 -4.668290 2.904019 1.130907 27.347321 31.689527 43.038996 64.377893 -55.776862 0.000000 0.000000 0.000000 -1.295877 -5.515629 0.875813 -0.501526 -11.823086 -14.833168 2.137771 -7.455463 -7.359028 -18.756446 -5.020961 -28.936834 45.431751 -34.672762 37.274897 0.000000 0.000000 0.000000 2.039543 -5.982033 0.975773 -0.046101 20.372342 -0.550371 -3.118340 -1.314864 4.061833 -57.093934 -26.961724 4.757449 -160.104087 60.103158 176.315446 0.000000 0.000000 0.000000 
-7.146196 104.513397 -2.232384 0.000000 0.000000 0.000000 -7.218534 -38.394467 -2.420409 -19.161566 10.381683 19.246546 35.506943 1.949067 -4.085963 -8.009701 0.680934 -13.179273 0.389264 0.088408 0.320891 0.000000 0.000000 0.000000 -5.247176 -33.424610 -1.896356 -5.795868 -16.677058 -20.776447 28.105018 12.630333 -4.526508 -12.213474 -16.441792 32.388760 -2.291223 5.045213 -12.236181 0.000000 0.000000 0.000000 -8.096210 -26.763953 -3.643903 -0.403102 -4.827772 2.561431 -5.508457 -7.516437 2.881681 -0.032635 -0.506651 -0.301356 0.000000 0.000000 0.000000 0.986790 -4.819450 4.118137 0.750816 24.057128 29.602696 32.625235 63.829217 -49.809718 0.000000 0.000000 0.000000 -2.610453 -5.504036 2.547303 -0.517979 -11.817395 -13.511112 2.918606 -7.411813 -7.385523 -17.903708 -4.541917 -29.782497 55.227824 -36.196864 44.528288 0.000000 0.000000 0.000000 0.609964 -6.199769 2.322074 -0.015864 15.655104 0.424707 -8.032040 2.180533 5.501436 -61.268771 -34.344752 0.092959 -156.424583 58.542282 175.016918 0.000000 0.000000 0.000000 
